<?xml version="1.0" encoding="UTF-8"?>
<svg width="44px" height="44px" viewBox="0 0 44 44" version="1.1" xmlns="http://www.w3.org/2000/svg" xmlns:xlink="http://www.w3.org/1999/xlink">
    <!-- Generator: Sketch 58 (84663) - https://sketch.com -->
    <title>切片</title>
    <desc>Created with Sketch.</desc>
    <g id="页面-1" stroke="none" stroke-width="1" fill="none" fill-rule="evenodd">
        <g id="切图" transform="translate(-161.000000, -317.000000)">
            <g id="编组-2备份" transform="translate(89.000000, 317.000000)">
                <g id="icon/我的备份" transform="translate(72.000000, 0.000000)">
                    <path d="M22,8.99754299 L11,17 L11,36.5977357 C11,38.8068747 12.790861,40.5977357 15,40.5977357 L34.1279015,40.5977357 C36.3370405,40.5977357 38.1279015,38.8068747 38.1279015,36.5977357 C38.1279015,36.5874363 38.1278617,36.5771369 38.1277822,36.5668378 L38,20.0248418 L38,20.0248418 L22,8.99754299 Z" id="路径-4" fill="#A9D18E"></path>
                    <polyline id="路径-3" stroke="#333333" stroke-width="3" stroke-linecap="round" stroke-linejoin="round" points="2 17 22 3 42 17"></polyline>
                    <path d="M38,22 L38,37 C38,39.209139 36.209139,41 34,41 L10,41 C7.790861,41 6,39.209139 6,37 L6,15 L6,15" id="路径" stroke="#333333" stroke-width="3" stroke-linecap="round" stroke-linejoin="round"></path>
                    <path d="M22,29 L22,41" id="直线" stroke="#333333" stroke-width="3" stroke-linecap="round" stroke-linejoin="round"></path>
                </g>
            </g>
        </g>
    </g>
</svg>