<?xml version="1.0" encoding="UTF-8"?>
<svg width="44px" height="44px" viewBox="0 0 44 44" version="1.1" xmlns="http://www.w3.org/2000/svg" xmlns:xlink="http://www.w3.org/1999/xlink">
    <!-- Generator: Sketch 58 (84663) - https://sketch.com -->
    <title>切片</title>
    <desc>Created with Sketch.</desc>
    <g id="页面-1" stroke="none" stroke-width="1" fill="none" fill-rule="evenodd">
        <g id="切图" transform="translate(-347.000000, -317.000000)">
            <g id="编组-2备份" transform="translate(89.000000, 317.000000)">
                <g id="icon/我的备份-3" transform="translate(258.000000, 0.000000)">
                    <path d="M38,9 L38,34 C38,37.3137085 35.3137085,40 32,40 L17,40 C13.6862915,40 11,37.3137085 11,34 L11,9 L11,9 L38,9 Z" id="路径备份-2" fill="#A9D18E"></path>
                    <path d="M2,4 L42,4" id="直线-2" stroke="#333333" stroke-width="3" stroke-linecap="round" stroke-linejoin="round"></path>
                    <path d="M38,11 L38,34 C38,37.3137085 35.3137085,40 32,40 L12,40 C8.6862915,40 6,37.3137085 6,34 L6,4 L6,4" id="路径备份" stroke="#333333" stroke-width="3" stroke-linecap="round" stroke-linejoin="round"></path>
                    <polyline id="路径-6" stroke="#333333" stroke-width="3" stroke-linecap="round" stroke-linejoin="round" points="14 20.9965554 20 26.9965554 30 17"></polyline>
                </g>
            </g>
        </g>
    </g>
</svg>