<?xml version="1.0" encoding="UTF-8"?>
<svg width="44px" height="44px" viewBox="0 0 44 44" version="1.1" xmlns="http://www.w3.org/2000/svg" xmlns:xlink="http://www.w3.org/1999/xlink">
    <!-- Generator: Sketch 58 (84663) - https://sketch.com -->
    <title>切片</title>
    <desc>Created with Sketch.</desc>
    <g id="页面-1" stroke="none" stroke-width="1" fill="none" fill-rule="evenodd">
        <g id="切图" transform="translate(-723.000000, -212.000000)" stroke="#666666" stroke-width="3">
            <g id="编组-2" transform="translate(89.000000, 212.000000)">
                <g id="icon/我的" transform="translate(634.000000, 0.000000)">
                    <circle id="椭圆形" cx="22" cy="12" r="9"></circle>
                    <path d="M27.5882353,26 L33.607732,26 C35.3481082,26 36.8887581,27.1253214 37.4181714,28.783221 L40.1670689,37.3916105 C40.5030731,38.4438343 39.9224625,39.5692155 38.8702387,39.9052197 C38.6735503,39.9680278 38.4683223,40 38.2618492,40 L5.73815083,40 C4.63358133,40 3.73815083,39.1045695 3.73815083,38 C3.73815083,37.7935269 3.77012306,37.5882988 3.8329311,37.3916105 L6.58182858,28.783221 C7.11124191,27.1253214 8.65189176,26 10.392268,26 L16.4117647,26 L16.4117647,26 L19.9438715,29.3628097" id="路径" stroke-linecap="round" stroke-linejoin="round"></path>
                </g>
            </g>
        </g>
    </g>
</svg>