<?xml version="1.0" encoding="UTF-8"?>
<svg width="44px" height="44px" viewBox="0 0 44 44" version="1.1" xmlns="http://www.w3.org/2000/svg" xmlns:xlink="http://www.w3.org/1999/xlink">
    <!-- Generator: Sketch 58 (84663) - https://sketch.com -->
    <title>切片</title>
    <desc>Created with Sketch.</desc>
    <defs>
        <circle id="path-1" cx="9" cy="9" r="9"></circle>
        <path d="M24.5882353,0 L30.607732,0 C32.3481082,3.23301174e-15 33.8887581,1.12532139 34.4181714,2.78322101 L37.1670689,11.3916105 C37.5030731,12.4438343 36.9224625,13.5692155 35.8702387,13.9052197 C35.6735503,13.9680278 35.4683223,14 35.2618492,14 L2.73815083,14 C1.63358133,14 0.73815083,13.1045695 0.73815083,12 C0.73815083,11.7935269 0.770123058,11.5882988 0.832931099,11.3916105 L3.58182858,2.78322101 C4.11124191,1.12532139 5.65189176,2.09605878e-15 7.39226805,0 L13.4117647,0 L13.4117647,0 L16.9438715,3.36280974 L24.5882353,0 Z" id="path-3"></path>
    </defs>
    <g id="页面-1" stroke="none" stroke-width="1" fill="none" fill-rule="evenodd">
        <g id="切图" transform="translate(-723.000000, -317.000000)">
            <g id="编组-2备份" transform="translate(89.000000, 317.000000)">
                <g id="icon/我的" transform="translate(634.000000, 0.000000)">
                    <g id="椭圆形备份" transform="translate(13.000000, 3.000000)">
                        <mask id="mask-2" fill="white">
                            <use xlink:href="#path-1"></use>
                        </mask>
                        <g id="蒙版"></g>
                        <circle fill="#A9D18E" mask="url(#mask-2)" cx="13" cy="13" r="9"></circle>
                    </g>
                    <circle id="椭圆形" stroke="#333333" stroke-width="3" cx="22" cy="12" r="9"></circle>
                    <g id="路径备份" transform="translate(3.000000, 26.000000)">
                        <mask id="mask-4" fill="white">
                            <use xlink:href="#path-3"></use>
                        </mask>
                        <g id="蒙版"></g>
                        <path d="M28.5882353,4 L34.607732,4 C36.3481082,4 37.8887581,5.12532139 38.4181714,6.78322101 L41.1670689,15.3916105 C41.5030731,16.4438343 40.9224625,17.5692155 39.8702387,17.9052197 C39.6735503,17.9680278 39.4683223,18 39.2618492,18 L6.73815083,18 C5.63358133,18 4.73815083,17.1045695 4.73815083,16 C4.73815083,15.7935269 4.77012306,15.5882988 4.8329311,15.3916105 L7.58182858,6.78322101 C8.11124191,5.12532139 9.65189176,4 11.392268,4 L17.4117647,4 L17.4117647,4 L20.9438715,7.36280974 L24.0722151,4 L28.5882353,4 Z" fill="#A9D18E" mask="url(#mask-4)"></path>
                    </g>
                    <path d="M27.5882353,26 L33.607732,26 C35.3481082,26 36.8887581,27.1253214 37.4181714,28.783221 L40.1670689,37.3916105 C40.5030731,38.4438343 39.9224625,39.5692155 38.8702387,39.9052197 C38.6735503,39.9680278 38.4683223,40 38.2618492,40 L5.73815083,40 C4.63358133,40 3.73815083,39.1045695 3.73815083,38 C3.73815083,37.7935269 3.77012306,37.5882988 3.8329311,37.3916105 L6.58182858,28.783221 C7.11124191,27.1253214 8.65189176,26 10.392268,26 L16.4117647,26 L16.4117647,26 L19.9438715,29.3628097" id="路径" stroke="#333333" stroke-width="3" stroke-linecap="round" stroke-linejoin="round"></path>
                </g>
            </g>
        </g>
    </g>
</svg>