<?xml version="1.0" encoding="UTF-8"?>
<svg width="44px" height="44px" viewBox="0 0 44 44" version="1.1" xmlns="http://www.w3.org/2000/svg" xmlns:xlink="http://www.w3.org/1999/xlink">
    <!-- Generator: Sketch 58 (84663) - https://sketch.com -->
    <title>切片</title>
    <desc>Created with Sketch.</desc>
    <defs>
        <path d="M37.8588596,9.3978125 C38.1878734,11.043625 37.9554411,12.7978125 37.0161597,14.188625 C35.8720407,15.884375 33.9340432,17 31.7360187,17 C28.802489,17 26.3327627,15.0141875 25.5940737,12.3133125 C25.5282709,12.07425 25.2077478,12.07425 25.141945,12.3133125 C24.4021946,15.0141875 21.9324683,17 19,17 C14.9106767,17 13.4237465,13.9878125 12.8994471,12.18475 C12.8315216,11.951 12.4993238,11.9456875 12.4409504,12.1815625 C11.7468374,14.949375 9.24420971,17 6.26398134,17 C4.06595679,17 2.12795928,15.884375 0.983840273,14.188625 C0.0445588965,12.7978125 -0.187873444,11.0446875 0.141140371,9.3978125 L2.01864179,0 L35.9813582,0 L37.8588596,9.3978125 Z" id="path-1"></path>
    </defs>
    <g id="页面-1" stroke="none" stroke-width="1" fill="none" fill-rule="evenodd">
        <g id="切图" transform="translate(-535.000000, -317.000000)">
            <g id="编组-2备份" transform="translate(89.000000, 317.000000)">
                <g id="icon/我的备份-2" transform="translate(446.000000, 0.000000)">
                    <g id="Stroke-1备份-2" transform="translate(10.499071, 22.500000)" fill="#A9D18E">
                        <path d="M17.8681158,0.93815383 C19.6699967,2.24198282 21.8781912,3 24.2369479,3 C25.3641941,3 26.4626998,2.82644437 27.5017672,2.49919306 L27.5009293,11.5 C27.5009293,14.8137085 24.8146378,17.5 21.5009293,17.5 L6.50092927,17.5 C3.18722077,17.5 0.500929273,14.8137085 0.500929273,11.5 L0.501393727,2.86122745 C2.04079682,2.61291956 3.48076337,2.03962427 4.74186816,1.20808241 L4.74186816,1.20808241 L5.04282215,1.00233899 L5.29705769,1.18648468 C6.92965657,2.32819522 8.9890742,3 11.5009293,3 C13.8587955,3 16.0662876,2.24226143 17.8681158,0.93815383 Z" id="形状结合"></path>
                    </g>
                    <g id="Stroke-1备份" transform="translate(3.000000, 4.000000)">
                        <mask id="mask-2" fill="white">
                            <use xlink:href="#path-1"></use>
                        </mask>
                        <g id="蒙版"></g>
                        <path d="M41.8588596,14.3978125 C42.1878734,16.043625 41.9554411,17.7978125 41.0161597,19.188625 C39.8720407,20.884375 37.9340432,22 35.7360187,22 C32.802489,22 30.3327627,20.0141875 29.5940737,17.3133125 C29.5282709,17.07425 29.2077478,17.07425 29.141945,17.3133125 C28.4021946,20.0141875 25.9324683,22 23,22 C18.9106767,22 17.4237465,18.9878125 16.8994471,17.18475 C16.8315216,16.951 16.4993238,16.9456875 16.4409504,17.1815625 C15.7468374,19.949375 13.2442097,22 10.2639813,22 C8.06595679,22 6.12795928,20.884375 4.98384027,19.188625 C4.0445589,17.7978125 3.81212656,16.0446875 4.14114037,14.3978125 L6.01864179,5 L39.9813582,5 L41.8588596,14.3978125 Z" fill="#A9D18E" mask="url(#mask-2)"></path>
                    </g>
                    <path d="M40.8588596,13.3978125 C41.1878734,15.043625 40.9554411,16.7978125 40.0161597,18.188625 C38.8720407,19.884375 36.9340432,21 34.7360187,21 C31.802489,21 29.3327627,19.0141875 28.5940737,16.3133125 C28.5282709,16.07425 28.2077478,16.07425 28.141945,16.3133125 C27.4021946,19.0141875 24.9324683,21 22,21 C17.9106767,21 16.4237465,17.9878125 15.8994471,16.18475 C15.8315216,15.951 15.4993238,15.9456875 15.4409504,16.1815625 C14.7468374,18.949375 12.2442097,21 9.26398134,21 C7.06595679,21 5.12795928,19.884375 3.98384027,18.188625 C3.0445589,16.7978125 2.81212656,15.0446875 3.14114037,13.3978125 L5.01864179,4 L38.9813582,4 L40.8588596,13.3978125 Z" id="Stroke-1" stroke="#333333" stroke-width="3" stroke-linecap="round" stroke-linejoin="round"></path>
                    <path d="M38,26.6666667 L38,36 C38,38.209139 36.209139,40 34,40 L10,40 C7.790861,40 6,38.209139 6,36 L6,20.3742587 L6,20.3742587" id="路径备份-2" stroke="#333333" stroke-width="3" stroke-linecap="round" stroke-linejoin="round"></path>
                </g>
            </g>
        </g>
    </g>
</svg>