<?xml version="1.0" encoding="UTF-8"?>
<svg width="44px" height="44px" viewBox="0 0 44 44" version="1.1" xmlns="http://www.w3.org/2000/svg" xmlns:xlink="http://www.w3.org/1999/xlink">
    <!-- Generator: Sketch 58 (84663) - https://sketch.com -->
    <title>切片</title>
    <desc>Created with Sketch.</desc>
    <g id="页面-1" stroke="none" stroke-width="1" fill="none" fill-rule="evenodd" stroke-linecap="round" stroke-linejoin="round">
        <g id="切图" transform="translate(-535.000000, -212.000000)" stroke="#666666" stroke-width="3">
            <g id="编组-2" transform="translate(89.000000, 212.000000)">
                <g id="icon/我的备份-2" transform="translate(446.000000, 0.000000)">
                    <path d="M40.8588596,13.3978125 C41.1878734,15.043625 40.9554411,16.7978125 40.0161597,18.188625 C38.8720407,19.884375 36.9340432,21 34.7360187,21 C31.802489,21 29.3327627,19.0141875 28.5940737,16.3133125 C28.5282709,16.07425 28.2077478,16.07425 28.141945,16.3133125 C27.4021946,19.0141875 24.9324683,21 22,21 C17.9106767,21 16.4237465,17.9878125 15.8994471,16.18475 C15.8315216,15.951 15.4993238,15.9456875 15.4409504,16.1815625 C14.7468374,18.949375 12.2442097,21 9.26398134,21 C7.06595679,21 5.12795928,19.884375 3.98384027,18.188625 C3.0445589,16.7978125 2.81212656,15.0446875 3.14114037,13.3978125 L5.01864179,4 L38.9813582,4 L40.8588596,13.3978125 Z" id="Stroke-1"></path>
                    <path d="M38,26.6666667 L38,36 C38,38.209139 36.209139,40 34,40 L10,40 C7.790861,40 6,38.209139 6,36 L6,20.3742587 L6,20.3742587" id="路径备份-2"></path>
                </g>
            </g>
        </g>
    </g>
</svg>